<?xml version="1.0" encoding="UTF-8" standalone="no"?>
<svg
   height="16"
   viewBox="0 0 16 16"
   width="16"
   version="1.1"
   id="svg4"
   sodipodi:docname="icon_icon_button.svg"
   inkscape:version="1.1 (c4e8f9ed74, 2021-05-24)"
   xmlns:inkscape="http://www.inkscape.org/namespaces/inkscape"
   xmlns:sodipodi="http://sodipodi.sourceforge.net/DTD/sodipodi-0.dtd"
   xmlns="http://www.w3.org/2000/svg"
   xmlns:svg="http://www.w3.org/2000/svg">
  <defs
     id="defs8" />
  <sodipodi:namedview
     id="namedview6"
     pagecolor="#505050"
     bordercolor="#ff0000"
     borderopacity="1"
     inkscape:pageshadow="0"
     inkscape:pageopacity="0"
     inkscape:pagecheckerboard="1"
     showgrid="true"
     inkscape:zoom="54.5625"
     inkscape:cx="2.6483391"
     inkscape:cy="9.0721649"
     inkscape:window-width="2532"
     inkscape:window-height="1366"
     inkscape:window-x="2572"
     inkscape:window-y="40"
     inkscape:window-maximized="1"
     inkscape:current-layer="svg4">
    <inkscape:grid
       type="xygrid"
       id="grid825"
       color="#ffffff"
       opacity="0.45490196"
       empcolor="#ffffff"
       empopacity="0.69803922"
       empspacing="4"
       snapvisiblegridlinesonly="true"
       dotted="false" />
  </sodipodi:namedview>
  <path
     d="m 9,5 v 1 h 5 v 6 h -4 v 1 h 5 V 5 Z M 3,2 v 3.1328 l -1.4453,-0.96484 -1.1094,1.6641 3,2 c 0.3359,0.2239 0.77347,0.2239 1.1094,0 l 3,-2 L 6.4453,4.16796 5,5.1328 V 2 Z M 9,8 V 9 H 8 v 0 1 1 h 2 2 V 10 H 11 V 9 H 10 V 8 Z M 2.5,10 C 1.669,10 1,10.669 1,11.5 V 12 13 H 0 v 2 H 8 V 13 H 7 V 12 11.5 C 7,10.669 6.331,10 5.5,10 Z"
     fill="#a5efac"
     id="path2"
     sodipodi:nodetypes="ccccccccccccccccccccccccccccccccccssccccccccsss" />
</svg>
